<svg xmlns="http://www.w3.org/2000/svg" width="9" height="10" viewBox="0 0 9 10" fill="none"><path d="M8.53158 4.21641V2.54535C7.749 2.54535 7.15178 2.33646 6.76637 1.93047C6.37081 1.46711 6.14921 0.88033 6.13972 0.271173V0.150551L4.55987 0.112305C4.55987 0.112305 4.55987 0.179971 4.55987 0.271173V6.89952C4.50567 7.19565 4.36192 7.46802 4.14803 7.67987C3.93413 7.89171 3.66038 8.03283 3.36375 8.08417C3.06711 8.1355 2.76186 8.09459 2.48921 7.96695C2.21656 7.83931 1.98963 7.63109 1.83907 7.37039C1.68851 7.1097 1.62156 6.80908 1.64726 6.50913C1.67296 6.20918 1.79007 5.92434 1.98279 5.69306C2.1755 5.46178 2.43454 5.29519 2.72492 5.21579C3.01531 5.13639 3.32307 5.148 3.60666 5.24905V3.63095C3.44131 3.60385 3.27406 3.59008 3.10651 3.58976C2.50369 3.58976 1.91441 3.76852 1.41318 4.10342C0.911953 4.43833 0.521294 4.91435 0.290604 5.47129C0.0599143 6.02822 -0.000444598 6.64106 0.11716 7.2323C0.234765 7.82354 0.525051 8.36662 0.95131 8.79288C1.37757 9.21914 1.92066 9.50943 2.51189 9.62703C3.10313 9.74464 3.71597 9.68428 4.2729 9.45359C4.82984 9.2229 5.30586 8.83224 5.64077 8.33101C5.97568 7.82978 6.15443 7.2405 6.15443 6.63768C6.15411 6.51277 6.14625 6.388 6.1309 6.26404V3.57211C6.84928 4.02075 7.6851 4.24506 8.53158 4.21641V4.21641Z" fill="white"></path></svg>