<svg xmlns="http://www.w3.org/2000/svg" width="230" height="75" viewBox="0 0 230 75" fill="none"><path d="M92.2056 25.9953C92.2056 25.8889 92.2376 25.8038 92.3014 25.74C92.3865 25.6548 92.4823 25.6123 92.5887 25.6123H97.1211C97.2275 25.6123 97.3126 25.6548 97.3765 25.74C97.4616 25.8038 97.5042 25.8889 97.5042 25.9953V47.5724C97.5042 47.6788 97.4616 47.7745 97.3765 47.8597C97.3126 47.9235 97.2275 47.9554 97.1211 47.9554H92.5887C92.4823 47.9554 92.3865 47.9235 92.3014 47.8597C92.2376 47.7745 92.2056 47.6788 92.2056 47.5724V39.082C92.2056 38.9756 92.1524 38.9224 92.0461 38.9224H86.0772C85.9709 38.9224 85.9177 38.9756 85.9177 39.082V47.5724C85.9177 47.6788 85.8751 47.7745 85.79 47.8597C85.7261 47.9235 85.641 47.9554 85.5346 47.9554H81.0022C80.8958 47.9554 80.8 47.9235 80.7149 47.8597C80.6511 47.7745 80.6191 47.6788 80.6191 47.5724V25.9953C80.6191 25.8889 80.6511 25.8038 80.7149 25.74C80.8 25.6548 80.8958 25.6123 81.0022 25.6123H85.5346C85.641 25.6123 85.7261 25.6548 85.79 25.74C85.8751 25.8038 85.9177 25.8889 85.9177 25.9953V34.2303C85.9177 34.3367 85.9709 34.3899 86.0772 34.3899H92.0461C92.1524 34.3899 92.2056 34.3367 92.2056 34.2303V25.9953Z" fill="white"></path><path d="M107.116 48.3065C105.393 48.3065 103.871 47.966 102.552 47.2851C101.254 46.5829 100.243 45.6041 99.5195 44.3486C98.796 43.0931 98.4343 41.6355 98.4343 39.9757V33.592C98.4343 31.9748 98.796 30.549 99.5195 29.3149C100.243 28.0594 101.254 27.0912 102.552 26.4103C103.871 25.708 105.393 25.3569 107.116 25.3569C108.84 25.3569 110.361 25.708 111.681 26.4103C113 27.0912 114.021 28.0594 114.745 29.3149C115.468 30.549 115.83 31.9748 115.83 33.592V39.9757C115.83 41.6355 115.468 43.0931 114.745 44.3486C114.021 45.6041 113 46.5829 111.681 47.2851C110.361 47.966 108.84 48.3065 107.116 48.3065ZM107.116 43.7741C108.138 43.7741 108.957 43.4442 109.574 42.7846C110.212 42.1249 110.531 41.2418 110.531 40.1353V33.5281C110.531 32.4429 110.212 31.5704 109.574 30.9108C108.957 30.2299 108.138 29.8894 107.116 29.8894C106.116 29.8894 105.297 30.2299 104.658 30.9108C104.041 31.5704 103.733 32.4429 103.733 33.5281V40.1353C103.733 41.2418 104.041 42.1249 104.658 42.7846C105.297 43.4442 106.116 43.7741 107.116 43.7741Z" fill="white"></path><path d="M125.121 48.2108C123.355 48.2108 121.812 47.9341 120.493 47.3809C119.195 46.8063 118.184 45.9977 117.461 44.955C116.759 43.8911 116.408 42.6675 116.408 41.2844V40.6779C116.408 40.5715 116.439 40.4864 116.503 40.4226C116.588 40.3375 116.684 40.2949 116.791 40.2949H121.227C121.334 40.2949 121.419 40.3375 121.483 40.4226C121.568 40.4864 121.61 40.5715 121.61 40.6779V41.061C121.61 41.7632 121.961 42.3803 122.664 42.9122C123.366 43.4229 124.313 43.6783 125.504 43.6783C126.441 43.6783 127.132 43.4761 127.579 43.0718C128.026 42.6675 128.249 42.1994 128.249 41.6674C128.249 41.2418 128.111 40.9014 127.834 40.646C127.579 40.3694 127.228 40.146 126.781 39.9757C126.334 39.7842 125.643 39.5289 124.706 39.2097C124.579 39.1458 124.451 39.1033 124.323 39.082C124.196 39.0394 124.079 38.9969 123.972 38.9543C122.589 38.5075 121.387 38.0287 120.365 37.518C119.344 36.986 118.472 36.2625 117.748 35.3475C117.025 34.4112 116.663 33.2621 116.663 31.9003C116.663 30.581 117.003 29.4319 117.684 28.4531C118.387 27.4529 119.355 26.6869 120.589 26.1549C121.823 25.6229 123.217 25.3569 124.77 25.3569C126.409 25.3569 127.877 25.6548 129.175 26.2507C130.494 26.8465 131.526 27.687 132.271 28.7722C133.016 29.8575 133.388 31.1023 133.388 32.5067V32.9536C133.388 33.06 133.346 33.1557 133.261 33.2409C133.197 33.3047 133.112 33.3366 133.005 33.3366H128.569C128.462 33.3366 128.366 33.3047 128.281 33.2409C128.217 33.1557 128.186 33.06 128.186 32.9536V32.7302C128.186 31.9854 127.856 31.3257 127.196 30.7512C126.536 30.1767 125.653 29.8894 124.547 29.8894C123.717 29.8894 123.068 30.0596 122.6 30.4001C122.132 30.7406 121.898 31.2193 121.898 31.8364C121.898 32.3046 122.047 32.6982 122.344 33.0174C122.642 33.3153 123.1 33.6026 123.717 33.8792C124.355 34.1346 125.324 34.4751 126.622 34.9006C128.111 35.4113 129.271 35.8582 130.101 36.2412C130.931 36.6243 131.707 37.252 132.431 38.1244C133.176 38.9756 133.548 40.1034 133.548 41.5078C133.548 42.891 133.197 44.0826 132.495 45.0827C131.792 46.0828 130.803 46.8595 129.526 47.4128C128.271 47.9448 126.802 48.2108 125.121 48.2108Z" fill="white"></path><path d="M146.495 47.9554C146.282 47.9554 146.133 47.8597 146.048 47.6681L142.282 39.1778C142.239 39.0926 142.176 39.0501 142.09 39.0501H139.984C139.877 39.0501 139.824 39.1033 139.824 39.2097V47.5724C139.824 47.6788 139.782 47.7745 139.697 47.8597C139.633 47.9235 139.548 47.9554 139.441 47.9554H134.909C134.802 47.9554 134.707 47.9235 134.621 47.8597C134.558 47.7745 134.526 47.6788 134.526 47.5724V25.9953C134.526 25.8889 134.558 25.8038 134.621 25.74C134.707 25.6548 134.802 25.6123 134.909 25.6123H144.389C145.793 25.6123 147.027 25.8996 148.091 26.4741C149.155 27.0486 149.974 27.8679 150.549 28.9318C151.145 29.9745 151.443 31.1768 151.443 32.5387C151.443 33.9644 151.091 35.1985 150.389 36.2412C149.687 37.2839 148.708 38.0393 147.453 38.5075C147.346 38.55 147.314 38.6245 147.357 38.7309L151.57 47.5085C151.613 47.5937 151.634 47.6575 151.634 47.7001C151.634 47.8703 151.517 47.9554 151.283 47.9554H146.495ZM139.984 30.1447C139.877 30.1447 139.824 30.1979 139.824 30.3043V34.8368C139.824 34.9432 139.877 34.9964 139.984 34.9964H143.527C144.314 34.9964 144.952 34.7836 145.442 34.358C145.931 33.9112 146.176 33.326 146.176 32.6025C146.176 31.8577 145.931 31.2619 145.442 30.815C144.952 30.3682 144.314 30.1447 143.527 30.1447H139.984Z" fill="white"></path><path d="M160.867 48.3065C159.143 48.3065 157.622 47.966 156.302 47.2851C155.004 46.5829 153.994 45.6041 153.27 44.3486C152.547 43.0931 152.185 41.6355 152.185 39.9757V33.592C152.185 31.9748 152.547 30.549 153.27 29.3149C153.994 28.0594 155.004 27.0912 156.302 26.4103C157.622 25.708 159.143 25.3569 160.867 25.3569C162.59 25.3569 164.112 25.708 165.431 26.4103C166.751 27.0912 167.772 28.0594 168.495 29.3149C169.219 30.549 169.581 31.9748 169.581 33.592V39.9757C169.581 41.6355 169.219 43.0931 168.495 44.3486C167.772 45.6041 166.751 46.5829 165.431 47.2851C164.112 47.966 162.59 48.3065 160.867 48.3065ZM160.867 43.7741C161.888 43.7741 162.708 43.4442 163.325 42.7846C163.963 42.1249 164.282 41.2418 164.282 40.1353V33.5281C164.282 32.4429 163.963 31.5704 163.325 30.9108C162.708 30.2299 161.888 29.8894 160.867 29.8894C159.867 29.8894 159.047 30.2299 158.409 30.9108C157.792 31.5704 157.483 32.4429 157.483 33.5281V40.1353C157.483 41.2418 157.792 42.1249 158.409 42.7846C159.047 43.4442 159.867 43.7741 160.867 43.7741Z" fill="white"></path><path d="M179.095 48.3065C177.372 48.3065 175.85 47.966 174.531 47.2851C173.233 46.5829 172.222 45.6041 171.499 44.3486C170.775 43.0931 170.414 41.6355 170.414 39.9757V33.592C170.414 31.9748 170.775 30.549 171.499 29.3149C172.222 28.0594 173.233 27.0912 174.531 26.4103C175.85 25.708 177.372 25.3569 179.095 25.3569C180.819 25.3569 182.341 25.708 183.66 26.4103C184.979 27.0912 186.001 28.0594 186.724 29.3149C187.448 30.549 187.809 31.9748 187.809 33.592V39.9757C187.809 41.6355 187.448 43.0931 186.724 44.3486C186.001 45.6041 184.979 46.5829 183.66 47.2851C182.341 47.966 180.819 48.3065 179.095 48.3065ZM179.095 43.7741C180.117 43.7741 180.936 43.4442 181.553 42.7846C182.192 42.1249 182.511 41.2418 182.511 40.1353V33.5281C182.511 32.4429 182.192 31.5704 181.553 30.9108C180.936 30.2299 180.117 29.8894 179.095 29.8894C178.095 29.8894 177.276 30.2299 176.638 30.9108C176.021 31.5704 175.712 32.4429 175.712 33.5281V40.1353C175.712 41.2418 176.021 42.1249 176.638 42.7846C177.276 43.4442 178.095 43.7741 179.095 43.7741Z" fill="white"></path><path d="M203.325 25.8676C203.41 25.6974 203.559 25.6123 203.772 25.6123H208.272C208.379 25.6123 208.464 25.6548 208.528 25.74C208.613 25.8038 208.655 25.8889 208.655 25.9953V47.5724C208.655 47.6788 208.613 47.7745 208.528 47.8597C208.464 47.9235 208.379 47.9554 208.272 47.9554H203.74C203.633 47.9554 203.538 47.9235 203.452 47.8597C203.389 47.7745 203.357 47.6788 203.357 47.5724V34.741C203.357 34.6559 203.335 34.6134 203.293 34.6134C203.25 34.6134 203.208 34.6453 203.165 34.7091L200.42 39.1139C200.335 39.2841 200.186 39.3693 199.973 39.3693H197.707C197.494 39.3693 197.345 39.2841 197.26 39.1139L194.483 34.6772C194.441 34.6134 194.398 34.5815 194.356 34.5815C194.313 34.5815 194.292 34.624 194.292 34.7091V47.5724C194.292 47.6788 194.249 47.7745 194.164 47.8597C194.1 47.9235 194.015 47.9554 193.909 47.9554H189.376C189.27 47.9554 189.174 47.9235 189.089 47.8597C189.025 47.7745 188.993 47.6788 188.993 47.5724V25.9953C188.993 25.8889 189.025 25.8038 189.089 25.74C189.174 25.6548 189.27 25.6123 189.376 25.6123H193.877C194.068 25.6123 194.217 25.6974 194.324 25.8676L198.76 32.8259C198.824 32.9536 198.888 32.9536 198.952 32.8259L203.325 25.8676Z" fill="white"></path><path d="M22 26.7669V32.5944C22 33.25 22.6937 33.6733 23.2767 33.3735L41.9084 23.7923C43.2542 23.1002 44.1003 21.7137 44.1003 20.2003V13.4228C44.1003 12.7729 43.4176 12.3493 42.8353 12.6378L25.4097 21.2722C23.3213 22.307 22 24.4362 22 26.7669Z" fill="white"></path><path fill-rule="evenodd" clip-rule="evenodd" d="M51.3013 12.0936C50.7188 11.8024 50.0334 12.2259 50.0334 12.8772V20.3164C50.0334 23.2198 48.4233 25.8837 45.8526 27.2333L32.5125 34.2369L24.4213 38.2825C22.9374 39.0244 22 40.5412 22 42.2003V53.6221C22 55.18 22.8275 56.6207 24.1732 57.4057L31.1951 61.5018C31.7791 61.8425 32.5125 61.4212 32.5125 60.7451V46.0636C32.5125 45.7934 32.6597 45.5445 32.8965 45.4143L48.9352 36.593C49.4291 36.3213 50.0334 36.6787 50.0334 37.2424V46.9327C52.1462 47.3564 53.7382 49.229 53.7382 51.4749C53.7382 53.7207 52.1462 55.5933 50.0334 56.017V60.7451C50.0334 61.4212 50.7669 61.8425 51.3509 61.5018L56.6343 58.4198C59.0565 57.0068 60.546 54.4136 60.546 51.6094V21.5888C60.546 18.6024 58.8587 15.8723 56.1876 14.5368L51.3013 12.0936Z" fill="white"></path><path d="M49.1252 54.0318C50.5271 54.0318 51.6635 52.887 51.6635 51.4749C51.6635 50.0628 50.5271 48.9181 49.1252 48.9181C47.7234 48.9181 46.5869 50.0628 46.5869 51.4749C46.5869 52.887 47.7234 54.0318 49.1252 54.0318Z" fill="white"></path></svg>